<svg xmlns="http://www.w3.org/2000/svg" xmlns:xlink="http://www.w3.org/1999/xlink" width="24" height="24" viewBox="0 0 24 24">
  <defs>
    <clipPath id="clip-path">
      <rect width="24" height="24" fill="none"/>
    </clipPath>
  </defs>
  <g id="help_outline-24px" clip-path="url(#clip-path)">
    <g id="help_outline-24px-2" data-name="help_outline-24px">
      <path id="Path" d="M0,0H24V24H0Z" fill="none"/>
      <path id="Shape" d="M10,20A10,10,0,1,1,20,10,10.011,10.011,0,0,1,10,20ZM10,2a8,8,0,1,0,8,8A8.009,8.009,0,0,0,10,2Zm1,14H9V14h2v2Zm0-3H9a3.749,3.749,0,0,1,.2-1.249.343.343,0,0,0,.009-.035.145.145,0,0,1,.011-.036.214.214,0,0,1,.02-.04.2.2,0,0,0,.02-.04,3.327,3.327,0,0,1,.25-.5.218.218,0,0,1,.015-.025.217.217,0,0,0,.015-.025.013.013,0,0,1,0-.01.013.013,0,0,0,0-.01,5.066,5.066,0,0,1,1.225-1.193C11.4,9.356,11.941,8.94,12,8.15A2,2,0,0,0,10.007,6,2,2,0,0,0,8.13,7.33.96.96,0,0,1,7.25,8h-.2a.9.9,0,0,1-.733-.371.89.89,0,0,1-.136-.8A4.016,4.016,0,0,1,7.6,4.8,3.971,3.971,0,0,1,10.009,4a4.192,4.192,0,0,1,.6.044,3.925,3.925,0,0,1,2.237,1.18A4.17,4.17,0,0,1,13.96,7.51c.228,1.614-.664,2.392-1.526,3.144-.155.136-.315.275-.464.416a3.4,3.4,0,0,0-.33.34.137.137,0,0,0-.015.02.138.138,0,0,1-.015.02,2.827,2.827,0,0,0-.28.391.4.4,0,0,0-.024.043.4.4,0,0,1-.026.047A2.111,2.111,0,0,0,11,13Z" transform="translate(2 2)" fill="#a0a9b8"/>
    </g>
  </g>
</svg>
